<?xml version="1.0" encoding="UTF-8"?>
<svg width="40px" height="32px" viewBox="0 0 40 32" version="1.1" xmlns="http://www.w3.org/2000/svg" xmlns:xlink="http://www.w3.org/1999/xlink">
    <!-- Generator: Sketch 61.2 (89653) - https://sketch.com -->
    <title>lv1/icon/images-light</title>
    <desc>Created with Sketch.</desc>
    <defs>
        <path d="M33.3333333,26.6666667 L33.3333333,27.7777778 C33.3333333,29.61875 31.8409722,31.1111111 30,31.1111111 L3.33333333,31.1111111 C1.49236111,31.1111111 0,29.61875 0,27.7777778 L0,10 C0,8.15902778 1.49236111,6.66666667 3.33333333,6.66666667 L4.44444444,6.66666667 L4.44444444,21.1111111 C4.44444444,24.1744444 6.93666667,26.6666667 10,26.6666667 L33.3333333,26.6666667 Z M40,21.1111111 L40,3.33333333 C40,1.49236111 38.5076389,0 36.6666667,0 L10,0 C8.15902778,0 6.66666667,1.49236111 6.66666667,3.33333333 L6.66666667,21.1111111 C6.66666667,22.9520833 8.15902778,24.4444444 10,24.4444444 L36.6666667,24.4444444 C38.5076389,24.4444444 40,22.9520833 40,21.1111111 Z M17.7777778,6.66666667 C17.7777778,8.50763889 16.2854167,10 14.4444444,10 C12.6034722,10 11.1111111,8.50763889 11.1111111,6.66666667 C11.1111111,4.82569444 12.6034722,3.33333333 14.4444444,3.33333333 C16.2854167,3.33333333 17.7777778,4.82569444 17.7777778,6.66666667 Z M11.1111111,16.6666667 L14.9663194,12.8114583 C15.2917361,12.4860417 15.819375,12.4860417 16.1448611,12.8114583 L18.8888889,15.5555556 L28.2996528,6.14479167 C28.6250694,5.819375 29.1527083,5.819375 29.4781944,6.14479167 L35.5555556,12.2222222 L35.5555556,20 L11.1111111,20 L11.1111111,16.6666667 Z" id="path-1"></path>
    </defs>
    <g id="Symbol" stroke="none" stroke-width="1" fill="none" fill-rule="evenodd">
        <g id="lv3/3_Room/Q1-2" transform="translate(-297.000000, -200.000000)">
            <g id="Group-2-Copy" transform="translate(0.000000, 160.000000)">
                <g id="lv1/color/box" stroke="#A0A0A0">
                    <rect id="Rectangle" x="0.5" y="0.5" width="631" height="159" rx="7"></rect>
                </g>
                <g id="Group" transform="translate(109.000000, 31.000000)">
                    <g id="lv1/icon/images-solid." transform="translate(183.000000, 0.000000)">
                        <g id="lv1/color/main" transform="translate(5.000000, 9.000000)">
                            <mask id="mask-2" fill="white">
                                <use xlink:href="#path-1"></use>
                            </mask>
                            <use id="Mask" fill="#000000" fill-rule="nonzero" xlink:href="#path-1"></use>
                            <g id="lv1/color/disable" mask="url(#mask-2)" fill="#A0A0A0" stroke="#979797">
                                <g transform="translate(-5.000000, -9.000000)" id="Rectangle">
                                    <rect x="0.5" y="0.5" width="49" height="49"></rect>
                                </g>
                            </g>
                        </g>
                    </g>
                </g>
            </g>
        </g>
    </g>
</svg>