<?xml version="1.0" encoding="UTF-8"?>
<svg width="50px" height="50px" viewBox="0 0 50 50" version="1.1" xmlns="http://www.w3.org/2000/svg" xmlns:xlink="http://www.w3.org/1999/xlink">
    <!-- Generator: Sketch 61.2 (89653) - https://sketch.com -->
    <title>lv1/icon/times-circle</title>
    <desc>Created with Sketch.</desc>
    <defs>
        <path d="M20,0 C8.9516129,0 0,8.9516129 0,20 C0,31.0483871 8.9516129,40 20,40 C31.0483871,40 40,31.0483871 40,20 C40,8.9516129 31.0483871,0 20,0 Z M29.8064516,25.25 C30.1854839,25.6290323 30.1854839,26.2419355 29.8064516,26.6209677 L26.6129032,29.8064516 C26.233871,30.1854839 25.6209677,30.1854839 25.2419355,29.8064516 L20,24.516129 L14.75,29.8064516 C14.3709677,30.1854839 13.7580645,30.1854839 13.3790323,29.8064516 L10.1935484,26.6129032 C9.81451613,26.233871 9.81451613,25.6209677 10.1935484,25.2419355 L15.483871,20 L10.1935484,14.75 C9.81451613,14.3709677 9.81451613,13.7580645 10.1935484,13.3790323 L13.3870968,10.1854839 C13.766129,9.80645161 14.3790323,9.80645161 14.7580645,10.1854839 L20,15.483871 L25.25,10.1935484 C25.6290323,9.81451613 26.2419355,9.81451613 26.6209677,10.1935484 L29.8145161,13.3870968 C30.1935484,13.766129 30.1935484,14.3790323 29.8145161,14.7580645 L24.516129,20 L29.8064516,25.25 Z" id="path-1"></path>
    </defs>
    <g id="Symbol" stroke="none" stroke-width="1" fill="none" fill-rule="evenodd">
        <g id="lv1/icon/times-circle">
            <g id="lv1/color/main" transform="translate(5.000000, 5.000000)">
                <mask id="mask-2" fill="white">
                    <use xlink:href="#path-1"></use>
                </mask>
                <use id="Mask" fill="#000000" fill-rule="nonzero" xlink:href="#path-1"></use>
                <g mask="url(#mask-2)" fill="#4C4C4C" id="Rectangle">
                    <g transform="translate(-5.000000, -5.000000)">
                        <rect x="0" y="0" width="50" height="50"></rect>
                    </g>
                </g>
            </g>
        </g>
    </g>
</svg>